<svg width="640" height="460" viewBox="0 0 640 460" fill="none" xmlns="http://www.w3.org/2000/svg">
  <rect width="640" height="460" rx="36" fill="#FFF8F0"/>
  <circle cx="122" cy="102" r="56" fill="#F9D8C2"/>
  <circle cx="525" cy="88" r="38" fill="#DCE9FF"/>
  <rect x="126" y="294" width="392" height="84" rx="42" fill="#CDEEE6"/>
  <ellipse cx="318" cy="226" rx="110" ry="88" fill="#FFCFA8"/>
  <ellipse cx="318" cy="248" rx="70" ry="58" fill="#FFF3EA"/>
  <circle cx="286" cy="214" r="9" fill="#25313B"/>
  <circle cx="349" cy="214" r="9" fill="#25313B"/>
  <ellipse cx="318" cy="245" rx="10" ry="8" fill="#25313B"/>
  <path d="M297 260C307 272 329 272 339 260" stroke="#25313B" stroke-width="6" stroke-linecap="round"/>
  <path d="M235 180L266 126L291 184" fill="#FFCFA8"/>
  <path d="M344 184L370 126L401 180" fill="#FFCFA8"/>
  <circle cx="218" cy="152" r="18" fill="#FFFFFF" fill-opacity="0.72"/>
  <circle cx="412" cy="148" r="14" fill="#FFFFFF" fill-opacity="0.72"/>
  <circle cx="438" cy="202" r="20" fill="#FFFFFF" fill-opacity="0.72"/>
  <circle cx="208" cy="230" r="24" fill="#FFFFFF" fill-opacity="0.72"/>
  <circle cx="458" cy="248" r="17" fill="#FFFFFF" fill-opacity="0.72"/>
</svg>
