<svg width="640" height="460" viewBox="0 0 640 460" fill="none" xmlns="http://www.w3.org/2000/svg">
  <rect width="640" height="460" rx="36" fill="#F8FFFC"/>
  <circle cx="514" cy="80" r="40" fill="#FCE7F3"/>
  <circle cx="136" cy="100" r="54" fill="#DCE9FF"/>
  <rect x="132" y="310" width="392" height="70" rx="35" fill="#F9D8C2"/>
  <ellipse cx="320" cy="238" rx="114" ry="94" fill="#F3F1F5"/>
  <ellipse cx="320" cy="258" rx="70" ry="58" fill="#FFFFFF"/>
  <circle cx="292" cy="228" r="9" fill="#25313B"/>
  <circle cx="347" cy="228" r="9" fill="#25313B"/>
  <ellipse cx="320" cy="257" rx="10" ry="8" fill="#25313B"/>
  <path d="M301 272C309 282 331 282 339 272" stroke="#25313B" stroke-width="6" stroke-linecap="round"/>
  <path d="M246 183L266 126L288 185" fill="#F3F1F5"/>
  <path d="M352 185L374 126L394 183" fill="#F3F1F5"/>
  <rect x="118" y="148" width="76" height="18" rx="9" fill="#FFC1CC"/>
  <rect x="446" y="132" width="18" height="96" rx="9" fill="#8CC5B7"/>
  <rect x="414" y="180" width="82" height="18" rx="9" fill="#8CC5B7"/>
</svg>
