<svg width="640" height="460" viewBox="0 0 640 460" fill="none" xmlns="http://www.w3.org/2000/svg">
  <rect width="640" height="460" rx="36" fill="#FFF8F9"/>
  <circle cx="120" cy="96" r="50" fill="#F9D8C2"/>
  <circle cx="508" cy="90" r="42" fill="#FFE5E8"/>
  <rect x="136" y="308" width="390" height="72" rx="36" fill="#DCE9FF"/>
  <ellipse cx="320" cy="238" rx="110" ry="90" fill="#F3F1F5"/>
  <ellipse cx="320" cy="258" rx="70" ry="58" fill="#FFFFFF"/>
  <circle cx="291" cy="227" r="9" fill="#25313B"/>
  <circle cx="350" cy="227" r="9" fill="#25313B"/>
  <ellipse cx="320" cy="256" rx="10" ry="8" fill="#25313B"/>
  <path d="M300 271C310 281 330 281 340 271" stroke="#25313B" stroke-width="6" stroke-linecap="round"/>
  <path d="M244 186L265 126L290 186" fill="#F3F1F5"/>
  <path d="M349 186L376 126L396 186" fill="#F3F1F5"/>
  <rect x="434" y="170" width="76" height="16" rx="8" fill="#F59E9E"/>
  <rect x="494" y="142" width="18" height="76" rx="9" fill="#7A94C7"/>
</svg>
